<?xml version="1.0" standalone="no"?><!DOCTYPE svg PUBLIC "-//W3C//DTD SVG 1.1//EN" "http://www.w3.org/Graphics/SVG/1.1/DTD/svg11.dtd"><svg t="1724998676570" class="icon" viewBox="0 0 1024 1024" version="1.1" xmlns="http://www.w3.org/2000/svg" p-id="38061" xmlns:xlink="http://www.w3.org/1999/xlink" width="200" height="200"><path d="M729.0368 103.7312H299.6224a115.6608 115.6608 0 0 0-115.6608 115.6608v590.2336a115.6608 115.6608 0 0 0 115.6608 115.6608h429.4144A115.6608 115.6608 0 0 0 844.8 809.6256V219.392a115.6608 115.6608 0 0 0-115.7632-115.6608z m21.6064 558.08h-472.576v-419.84h472.576z" fill="#FFA89F" p-id="38062"></path><path d="M729.0368 78.08H299.6224a141.4144 141.4144 0 0 0-141.2608 141.312v590.2336a141.4144 141.4144 0 0 0 141.2608 141.2608h429.4144A141.4656 141.4656 0 0 0 870.4 809.6256V219.392a141.4656 141.4656 0 0 0-141.3632-141.312zM819.2 809.6256a90.1632 90.1632 0 0 1-90.112 90.0608H299.6224a90.1632 90.1632 0 0 1-90.0608-90.0608V219.392a90.2144 90.2144 0 0 1 90.0608-90.112h429.4144A90.2144 90.2144 0 0 1 819.2 219.392z" fill="#092130" p-id="38063"></path><path d="M750.6432 216.576h-472.576a25.6 25.6 0 0 0-25.6 25.6v419.84a25.6 25.6 0 0 0 25.6 25.6h472.576a25.6 25.6 0 0 0 25.6-25.6v-419.84a25.6 25.6 0 0 0-25.6-25.6z m-25.6 419.84h-421.376v-368.64h421.376zM445.44 200.3456h138.24a25.6 25.6 0 0 0 0-51.2H445.44a25.6 25.6 0 1 0 0 51.2zM514.3552 714.3424A79.7184 79.7184 0 1 0 593.92 794.0608a79.8208 79.8208 0 0 0-79.5648-79.7184z m0 108.1856a28.5184 28.5184 0 1 1 28.4672-28.4672 28.5696 28.5696 0 0 1-28.4672 28.4672z" fill="#092130" p-id="38064"></path></svg>